# xmcd CD database file
#
# Track frame offsets:
#	150
#	25420
#	42200
#	64443
#	85025
#	113020
#	131495
#	151062
#	169985
#	194608
#	215990
#	246065
#	262888
#
# Disc length: 3828 seconds
#
# Revision: 0
# Processed by: cddbd v1.5.2PL0 Copyright (c) Steve Scherf et al.
# Submitted via: CDex 1.51
#
DISCID=b60ef20d
DTITLE=Zoë Schwarz - Dancing For Miles
DYEAR=2003
DGENRE=Jazz
TTITLE0=Nothing Seems To Matter Anymore
TTITLE1=I'm Alright Jack
TTITLE2=If You Never Come To Me
TTITLE3=No Moon At All
TTITLE4=The Waitress
TTITLE5=You're Not Alone
TTITLE6=A Charmed Life
TTITLE7=Another Day
TTITLE8=A Midnight Mood
TTITLE9=A Little Tear
TTITLE10=Why Are The Best Looking Guys All Gay
TTITLE11=Sea Lady
TTITLE12=Blue Skies
EXTD=YEAR: 2003
EXTT0=
EXTT1=
EXTT2=
EXTT3=
EXTT4=
EXTT5=
EXTT6=
EXTT7=
EXTT8=
EXTT9=
EXTT10=
EXTT11=
EXTT12=
PLAYORDER=
